<svg xmlns="http://www.w3.org/2000/svg" id="mainsvg" width="447.86328125000006" height="667.8000000000001" viewBox="-10 -10 407.1484375 608"><defs><marker id="arrow" viewBox="0 0 10 10" refX="10" refY="5" markerWidth="5" markerHeight="5" orient="auto-start-reverse" fill="black"><path stroke="black" d="M 0 0 L 10 5 L 0 10 z"/></marker><marker id="Many" viewBox="0 0 16 16" refX="15" refY="8" markerWidth="15" markerHeight="15" orient="auto-start-reverse"><path stroke="black" d="M0 8H15M15 15L2 8L15 1" fill="none"/></marker><marker id="ZeroOrOne" viewBox="0 0 16 10" refX="15" refY="5" markerWidth="21" markerHeight="21" orient="auto-start-reverse"><path d="M9 5H16" stroke="black" fill="none"/><circle cx="5" cy="5" r="4.5" stroke="black" fill="#fff"/><path d="M12 0L12 10" stroke="black" fill="none"/></marker><marker id="OneOnlyOne" viewBox="0 0 10 14" refX="10" refY="7" markerWidth="13" markerHeight="13" orient="auto-start-reverse"><path d="M0 7H4M4 7H7M4 7V0M4 7V14M7 7H10M7 7V0M7 7V14" stroke="black" fill="none"/></marker><marker id="OneOrMany" viewBox="0 0 16 16" refX="15" refY="8" markerWidth="15" markerHeight="15" orient="auto-start-reverse"><path stroke="black" d="M2 1V15M2 8L15 15M2 8L15 1M2 8H0M2 8H15" fill="none"/></marker><marker id="ZeroOrMany" viewBox="0 0 25 16" refX="23" refY="8" markerWidth="25" markerHeight="25" orient="auto-start-reverse"><path d="M13 8H27M27 15L14 8L27 1" stroke="black" fill="none"/><path d="M13.5 7.5C13.5 10.7795 10.6254 13.5 7 13.5C3.37461 13.5 0.5 10.7795 0.5 7.5C0.5 4.22054 3.37461 1.5 7 1.5C10.6254 1.5 13.5 4.22054 13.5 7.5Z" stroke="black" fill="#fff"/></marker><marker id="aggregation" viewBox="0 0 10 6" refX="9.3" refY="2.8" markerWidth="23" markerHeight="15" orient="auto-start-reverse"><path stroke="black" fill="#fff" stroke-width="0.7" d="M1.01614 2.82609L5 0.574341L8.98386 2.82609L5 5.07783L1.01614 2.82609Z"/></marker><marker id="composition" viewBox="0 0 10 6" refX="9.7" refY="2.8" markerWidth="18" markerHeight="15" orient="auto-start-reverse"><path stroke="black" fill="black" d="M1.01614 2.82609L5 0.574341L8.98386 2.82609L5 5.07783L1.01614 2.82609Z"/></marker><marker id="implementation" viewBox="0 0 8 10" refX="8" refY="5" markerWidth="20" markerHeight="20" orient="auto-start-reverse"><path stroke="black" fill="#fff" stroke-width="0.7" d="M0.750001 1.10289L7.5 5L0.750001 8.89712L0.750001 1.10289Z"/></marker><marker id="dependency" viewBox="0 0 12 12" refX="11" refY="6" markerWidth="12" markerHeight="11" orient="auto-start-reverse"><path stroke="black" fill="#fff" d="M1 5.93162H10.886M10.886 5.93162L1 0.5M10.886 5.93162L1 11"/></marker><marker id="inheritance" viewBox="0 0 8 10" refX="8" refY="5" markerWidth="20" markerHeight="20" orient="auto-start-reverse"><path stroke="black" fill="#fff" stroke-width="0.7" d="M0.750001 1.10289L7.5 5L0.750001 8.89712L0.750001 1.10289Z"/></marker><marker id="association" viewBox="0 0 12 12" refX="11" refY="6" markerWidth="12" markerHeight="11" orient="auto-start-reverse"><path stroke="black" d="M1 5.93162H10.886M10.886 5.93162L1 0.5M10.886 5.93162L1 11"/></marker><filter id="shadowOLD" x="-50%" y="-50%" width="250%" height="250%"><feDropShadow flood-color="black" flood-opacity="0.3" dx="1" dy="1" stdDeviation="2"> </feDropShadow></filter><filter id="shadow-path" filterUnits="userSpaceOnUse" x="-10" y="-10" width="407.1484375px" height="598px"><feDropShadow flood-color="black" flood-opacity="0.1" dx="1" dy="1" stdDeviation="1"> </feDropShadow></filter><filter id="shadow" filterUnits="userSpaceOnUse" x="-10" y="-10" width="507.1484375px" height="698px"><feDropShadow flood-color="black" flood-opacity="0.1" dx="1" dy="1" stdDeviation="1"> </feDropShadow></filter></defs><rect x="-10" y="-10" width="407.1484375" height="598" fill="#fff"/><g transform="translate(0, 0)"><g transform="translate(0, 0)"><rect width="387.1484375" height="299" stroke="black" fill="white" stroke-width="1" transform="translate(0, 0)" rx="0"/><g transform="translate(0, 0)"><g transform="translate(0, 0)"><rect width="387.1484375" height="38" stroke="black" fill="white" stroke-width="1" transform="translate(0, 0)" rx="0"/><text fill="black" font-size="16" font-weight="bold" transform="translate(163.33984375, 10)" alignment-baseline="middle" font-family="Arial"><tspan x="0" dy="16" font-family="Arial" font-size="16" font-weight="bold">Property</tspan></text></g><g transform="translate(0, 38)"><rect width="2" height="3" stroke="none" fill="none" stroke-width="1.3" transform="translate(0, 0)" rx="2"/></g><g transform="translate(0, 41)"><g transform="translate(0, 0)"><rect width="387.1484375" height="24" stroke="none" fill="none" stroke-width="1.3" transform="translate(0, 0)" rx="0"/><g transform="translate(0, 0)"><rect width="15" height="15" stroke="none" fill="none" stroke-width="1.3" transform="translate(0, 4.5)" rx="2"/><g transform="translate(15, 10)"><path transform="rotate(0,0, 0) scale(1)" d="M4 5H11" stroke="black" stroke-dasharray="none" stroke-width="1.3" fill="none"/></g><rect width="2" height="20" stroke="none" fill="none" stroke-width="1.3" transform="translate(25, 2)" rx="2"/><g transform="translate(27, 0)"><g transform="translate(0, 0)"><rect width="46.0234375" height="24" stroke="none" fill="none" stroke-width="0" transform="translate(0, 0)" rx="0"/><text fill="black" font-size="16" font-weight="normal" transform="translate(3, 3)" alignment-baseline="middle" font-family="Arial"><tspan x="0" dy="16" font-family="Arial" font-size="16" font-weight="normal">name</tspan></text></g></g></g></g><g transform="translate(0, 24)"><rect width="387.1484375" height="24" stroke="none" fill="none" stroke-width="1.3" transform="translate(0, 0)" rx="0"/><g transform="translate(0, 0)"><rect width="15" height="15" stroke="none" fill="none" stroke-width="1.3" transform="translate(0, 4.5)" rx="2"/><g transform="translate(15, 10)"><path transform="rotate(0,0, 0) scale(1)" d="M4 5H11" stroke="black" stroke-dasharray="none" stroke-width="1.3" fill="none"/></g><rect width="2" height="20" stroke="none" fill="none" stroke-width="1.3" transform="translate(25, 2)" rx="2"/><g transform="translate(27, 0)"><g transform="translate(0, 0)"><rect width="83.375" height="24" stroke="none" fill="none" stroke-width="0" transform="translate(0, 0)" rx="0"/><text fill="black" font-size="16" font-weight="normal" transform="translate(3, 3)" alignment-baseline="middle" font-family="Arial"><tspan x="0" dy="16" font-family="Arial" font-size="16" font-weight="normal">description</tspan></text></g></g></g></g><g transform="translate(0, 48)"><rect width="387.1484375" height="24" stroke="none" fill="none" stroke-width="1.3" transform="translate(0, 0)" rx="0"/><g transform="translate(0, 0)"><rect width="15" height="15" stroke="none" fill="none" stroke-width="1.3" transform="translate(0, 4.5)" rx="2"/><g transform="translate(15, 10)"><path transform="rotate(0,0, 0) scale(1)" d="M4 5H11" stroke="black" stroke-dasharray="none" stroke-width="1.3" fill="none"/></g><rect width="2" height="20" stroke="none" fill="none" stroke-width="1.3" transform="translate(25, 2)" rx="2"/><g transform="translate(27, 0)"><g transform="translate(0, 0)"><rect width="40.6796875" height="24" stroke="none" fill="none" stroke-width="0" transform="translate(0, 0)" rx="0"/><text fill="black" font-size="16" font-weight="normal" transform="translate(3, 3)" alignment-baseline="middle" font-family="Arial"><tspan x="0" dy="16" font-family="Arial" font-size="16" font-weight="normal">price</tspan></text></g></g></g></g><g transform="translate(0, 72)"><rect width="387.1484375" height="24" stroke="none" fill="none" stroke-width="1.3" transform="translate(0, 0)" rx="0"/><g transform="translate(0, 0)"><rect width="15" height="15" stroke="none" fill="none" stroke-width="1.3" transform="translate(0, 4.5)" rx="2"/><g transform="translate(15, 10)"><path transform="rotate(0,0, 0) scale(1)" d="M4 5H11" stroke="black" stroke-dasharray="none" stroke-width="1.3" fill="none"/></g><rect width="2" height="20" stroke="none" fill="none" stroke-width="1.3" transform="translate(25, 2)" rx="2"/><g transform="translate(27, 0)"><g transform="translate(0, 0)"><rect width="49.578125" height="24" stroke="none" fill="none" stroke-width="0" transform="translate(0, 0)" rx="0"/><text fill="black" font-size="16" font-weight="normal" transform="translate(3, 3)" alignment-baseline="middle" font-family="Arial"><tspan x="0" dy="16" font-family="Arial" font-size="16" font-weight="normal">owner</tspan></text></g></g></g></g><g transform="translate(0, 96)"><rect width="387.1484375" height="24" stroke="none" fill="none" stroke-width="1.3" transform="translate(0, 0)" rx="0"/><g transform="translate(0, 0)"><rect width="15" height="15" stroke="none" fill="none" stroke-width="1.3" transform="translate(0, 4.5)" rx="2"/><g transform="translate(15, 10)"><path transform="rotate(0,0, 0) scale(1)" d="M4 5H11" stroke="black" stroke-dasharray="none" stroke-width="1.3" fill="none"/></g><rect width="2" height="20" stroke="none" fill="none" stroke-width="1.3" transform="translate(25, 2)" rx="2"/><g transform="translate(27, 0)"><g transform="translate(0, 0)"><rect width="113.6328125" height="24" stroke="none" fill="none" stroke-width="0" transform="translate(0, 0)" rx="0"/><text fill="black" font-size="16" font-weight="normal" transform="translate(3, 3)" alignment-baseline="middle" font-family="Arial"><tspan x="0" dy="16" font-family="Arial" font-size="16" font-weight="normal">booking_status</tspan></text></g></g></g></g><g transform="translate(0, 120)"><rect width="387.1484375" height="24" stroke="none" fill="none" stroke-width="1.3" transform="translate(0, 0)" rx="0"/><g transform="translate(0, 0)"><rect width="15" height="15" stroke="none" fill="none" stroke-width="1.3" transform="translate(0, 4.5)" rx="2"/><g transform="translate(15, 10)"><path transform="rotate(0,0, 0) scale(1)" d="M4 5H11" stroke="black" stroke-dasharray="none" stroke-width="1.3" fill="none"/></g><rect width="2" height="20" stroke="none" fill="none" stroke-width="1.3" transform="translate(25, 2)" rx="2"/><g transform="translate(27, 0)"><g transform="translate(0, 0)"><rect width="109.1796875" height="24" stroke="none" fill="none" stroke-width="0" transform="translate(0, 0)" rx="0"/><text fill="black" font-size="16" font-weight="normal" transform="translate(3, 3)" alignment-baseline="middle" font-family="Arial"><tspan x="0" dy="16" font-family="Arial" font-size="16" font-weight="normal">current_tenant</tspan></text></g></g></g></g></g><g transform="translate(0, 185)"><path d="M 0,7 L 387.1484375 7" fill="none" stroke="black" stroke-dasharray="none" stroke-width="1"/><rect width="10" height="10" stroke="none" fill="none" stroke-width="1.3" transform="translate(0, 0)" rx="2"/></g><g transform="translate(0, 195)"><g transform="translate(0, 0)"><rect width="100" height="24" stroke="none" fill="none" stroke-width="1.3" transform="translate(0, 0)" rx="0"/><g transform="translate(0, 0)"><rect width="15" height="15" stroke="none" fill="none" stroke-width="1.3" transform="translate(0, 4.5)" rx="2"/><g transform="translate(15, 8)"><path transform="rotate(0,0, 0) scale(1)" d="M4 5H11M7.5 1V9" stroke="black" stroke-dasharray="none" stroke-width="1.3" fill="none"/></g><rect width="5" height="20" stroke="none" fill="none" stroke-width="1.3" transform="translate(22, 2)" rx="2"/><g transform="translate(27, 0)"><g transform="translate(0, 0)"><rect width="188.3359375" height="24" stroke="none" fill="none" stroke-width="0" transform="translate(0, 0)" rx="0"/><text fill="black" font-size="16" font-weight="normal" transform="translate(3, 3)" alignment-baseline="middle" font-family="Arial"><tspan x="0" dy="16" font-family="Arial" font-size="16" font-weight="normal">request_to_book(user_id)</tspan></text></g></g></g></g><g transform="translate(0, 24)"><rect width="100" height="24" stroke="none" fill="none" stroke-width="1.3" transform="translate(0, 0)" rx="0"/><g transform="translate(0, 0)"><rect width="15" height="15" stroke="none" fill="none" stroke-width="1.3" transform="translate(0, 4.5)" rx="2"/><g transform="translate(15, 8)"><path transform="rotate(0,0, 0) scale(1)" d="M4 5H11M7.5 1V9" stroke="black" stroke-dasharray="none" stroke-width="1.3" fill="none"/></g><rect width="5" height="20" stroke="none" fill="none" stroke-width="1.3" transform="translate(22, 2)" rx="2"/><g transform="translate(27, 0)"><g transform="translate(0, 0)"><rect width="132.2734375" height="24" stroke="none" fill="none" stroke-width="0" transform="translate(0, 0)" rx="0"/><text fill="black" font-size="16" font-weight="normal" transform="translate(3, 3)" alignment-baseline="middle" font-family="Arial"><tspan x="0" dy="16" font-family="Arial" font-size="16" font-weight="normal">set_status(status)</tspan></text></g></g></g></g><g transform="translate(0, 48)"><rect width="100" height="24" stroke="none" fill="none" stroke-width="1.3" transform="translate(0, 0)" rx="0"/><g transform="translate(0, 0)"><rect width="15" height="15" stroke="none" fill="none" stroke-width="1.3" transform="translate(0, 4.5)" rx="2"/><g transform="translate(15, 8)"><path transform="rotate(0,0, 0) scale(1)" d="M4 5H11M7.5 1V9" stroke="black" stroke-dasharray="none" stroke-width="1.3" fill="none"/></g><rect width="5" height="20" stroke="none" fill="none" stroke-width="1.3" transform="translate(22, 2)" rx="2"/><g transform="translate(27, 0)"><g transform="translate(0, 0)"><rect width="131.3984375" height="24" stroke="none" fill="none" stroke-width="0" transform="translate(0, 0)" rx="0"/><text fill="black" font-size="16" font-weight="normal" transform="translate(3, 3)" alignment-baseline="middle" font-family="Arial"><tspan x="0" dy="16" font-family="Arial" font-size="16" font-weight="normal">self.all_properties</tspan></text></g></g></g></g><g transform="translate(0, 72)"><rect width="100" height="24" stroke="none" fill="none" stroke-width="1.3" transform="translate(0, 0)" rx="0"/><g transform="translate(0, 0)"><rect width="15" height="15" stroke="none" fill="none" stroke-width="1.3" transform="translate(0, 4.5)" rx="2"/><g transform="translate(15, 8)"><path transform="rotate(0,0, 0) scale(1)" d="M4 5H11M7.5 1V9" stroke="black" stroke-dasharray="none" stroke-width="1.3" fill="none"/></g><rect width="5" height="20" stroke="none" fill="none" stroke-width="1.3" transform="translate(22, 2)" rx="2"/><g transform="translate(27, 0)"><g transform="translate(0, 0)"><rect width="310.1484375" height="24" stroke="none" fill="none" stroke-width="0" transform="translate(0, 0)" rx="0"/><text fill="black" font-size="16" font-weight="normal" transform="translate(3, 3)" alignment-baseline="middle" font-family="Arial"><tspan x="0" dy="16" font-family="Arial" font-size="16" font-weight="normal">self.add_property(name, description, price)</tspan></text></g></g></g></g></g><g transform="translate(0, 291)"><rect width="8" height="8" stroke="none" fill="none" stroke-width="1.3" transform="translate(0, 0)" rx="2"/></g></g></g></g><g transform="translate(7.5703125, 399)"><g transform="translate(0, 0)"><rect width="372.0078125" height="179" stroke="black" fill="white" stroke-width="1" transform="translate(0, 0)" rx="0"/><g transform="translate(0, 0)"><g transform="translate(0, 0)"><rect width="372.0078125" height="38" stroke="black" fill="white" stroke-width="1" transform="translate(0, 0)" rx="0"/><text fill="black" font-size="16" font-weight="bold" transform="translate(169.11328125, 10)" alignment-baseline="middle" font-family="Arial"><tspan x="0" dy="16" font-family="Arial" font-size="16" font-weight="bold">User</tspan></text></g><g transform="translate(0, 38)"><rect width="2" height="3" stroke="none" fill="none" stroke-width="1.3" transform="translate(0, 0)" rx="2"/></g><g transform="translate(0, 41)"><g transform="translate(0, 0)"><rect width="372.0078125" height="24" stroke="none" fill="none" stroke-width="1.3" transform="translate(0, 0)" rx="0"/><g transform="translate(0, 0)"><rect width="15" height="15" stroke="none" fill="none" stroke-width="1.3" transform="translate(0, 4.5)" rx="2"/><g transform="translate(15, 10)"><path transform="rotate(0,0, 0) scale(1)" d="M4 5H11" stroke="black" stroke-dasharray="none" stroke-width="1.3" fill="none"/></g><rect width="2" height="20" stroke="none" fill="none" stroke-width="1.3" transform="translate(25, 2)" rx="2"/><g transform="translate(27, 0)"><g transform="translate(0, 0)"><rect width="46.0234375" height="24" stroke="none" fill="none" stroke-width="0" transform="translate(0, 0)" rx="0"/><text fill="black" font-size="16" font-weight="normal" transform="translate(3, 3)" alignment-baseline="middle" font-family="Arial"><tspan x="0" dy="16" font-family="Arial" font-size="16" font-weight="normal">name</tspan></text></g></g></g></g><g transform="translate(0, 24)"><rect width="372.0078125" height="24" stroke="none" fill="none" stroke-width="1.3" transform="translate(0, 0)" rx="0"/><g transform="translate(0, 0)"><rect width="15" height="15" stroke="none" fill="none" stroke-width="1.3" transform="translate(0, 4.5)" rx="2"/><g transform="translate(15, 10)"><path transform="rotate(0,0, 0) scale(1)" d="M4 5H11" stroke="black" stroke-dasharray="none" stroke-width="1.3" fill="none"/></g><rect width="2" height="20" stroke="none" fill="none" stroke-width="1.3" transform="translate(25, 2)" rx="2"/><g transform="translate(27, 0)"><g transform="translate(0, 0)"><rect width="44.234375" height="24" stroke="none" fill="none" stroke-width="0" transform="translate(0, 0)" rx="0"/><text fill="black" font-size="16" font-weight="normal" transform="translate(3, 3)" alignment-baseline="middle" font-family="Arial"><tspan x="0" dy="16" font-family="Arial" font-size="16" font-weight="normal">email</tspan></text></g></g></g></g><g transform="translate(0, 48)"><rect width="372.0078125" height="24" stroke="none" fill="none" stroke-width="1.3" transform="translate(0, 0)" rx="0"/><g transform="translate(0, 0)"><rect width="15" height="15" stroke="none" fill="none" stroke-width="1.3" transform="translate(0, 4.5)" rx="2"/><g transform="translate(15, 10)"><path transform="rotate(0,0, 0) scale(1)" d="M4 5H11" stroke="black" stroke-dasharray="none" stroke-width="1.3" fill="none"/></g><rect width="2" height="20" stroke="none" fill="none" stroke-width="1.3" transform="translate(25, 2)" rx="2"/><g transform="translate(27, 0)"><g transform="translate(0, 0)"><rect width="74.4765625" height="24" stroke="none" fill="none" stroke-width="0" transform="translate(0, 0)" rx="0"/><text fill="black" font-size="16" font-weight="normal" transform="translate(3, 3)" alignment-baseline="middle" font-family="Arial"><tspan x="0" dy="16" font-family="Arial" font-size="16" font-weight="normal">password</tspan></text></g></g></g></g></g><g transform="translate(0, 113)"><path d="M 0,7 L 372.0078125 7" fill="none" stroke="black" stroke-dasharray="none" stroke-width="1"/><rect width="10" height="10" stroke="none" fill="none" stroke-width="1.3" transform="translate(0, 0)" rx="2"/></g><g transform="translate(0, 123)"><g transform="translate(0, 0)"><rect width="100" height="24" stroke="none" fill="none" stroke-width="1.3" transform="translate(0, 0)" rx="0"/><g transform="translate(0, 0)"><rect width="15" height="15" stroke="none" fill="none" stroke-width="1.3" transform="translate(0, 4.5)" rx="2"/><g transform="translate(15, 8)"><path transform="rotate(0,0, 0) scale(1)" d="M4 5H11M7.5 1V9" stroke="black" stroke-dasharray="none" stroke-width="1.3" fill="none"/></g><rect width="5" height="20" stroke="none" fill="none" stroke-width="1.3" transform="translate(22, 2)" rx="2"/><g transform="translate(27, 0)"><g transform="translate(0, 0)"><rect width="78.046875" height="24" stroke="none" fill="none" stroke-width="0" transform="translate(0, 0)" rx="0"/><text fill="black" font-size="16" font-weight="normal" transform="translate(3, 3)" alignment-baseline="middle" font-family="Arial"><tspan x="0" dy="16" font-family="Arial" font-size="16" font-weight="normal">self.log_in</tspan></text></g></g></g></g><g transform="translate(0, 24)"><rect width="100" height="24" stroke="none" fill="none" stroke-width="1.3" transform="translate(0, 0)" rx="0"/><g transform="translate(0, 0)"><rect width="15" height="15" stroke="none" fill="none" stroke-width="1.3" transform="translate(0, 4.5)" rx="2"/><g transform="translate(15, 8)"><path transform="rotate(0,0, 0) scale(1)" d="M4 5H11M7.5 1V9" stroke="black" stroke-dasharray="none" stroke-width="1.3" fill="none"/></g><rect width="5" height="20" stroke="none" fill="none" stroke-width="1.3" transform="translate(22, 2)" rx="2"/><g transform="translate(27, 0)"><g transform="translate(0, 0)"><rect width="295.0078125" height="24" stroke="none" fill="none" stroke-width="0" transform="translate(0, 0)" rx="0"/><text fill="black" font-size="16" font-weight="normal" transform="translate(3, 3)" alignment-baseline="middle" font-family="Arial"><tspan x="0" dy="16" font-family="Arial" font-size="16" font-weight="normal">self.create_user(name, email, password)</tspan></text></g></g></g></g></g><g transform="translate(0, 171)"><rect width="8" height="8" stroke="none" fill="none" stroke-width="1.3" transform="translate(0, 0)" rx="2"/></g></g></g></g></svg>